<svg xmlns:inkscape="http://www.inkscape.org/namespaces/inkscape" xmlns:sodipodi="http://sodipodi.sourceforge.net/DTD/sodipodi-0.dtd" xmlns="http://www.w3.org/2000/svg" xmlns:svg="http://www.w3.org/2000/svg" version="1.1" id="svg2" 
   viewBox="220 80 1640 216.09332" sodipodi:docname="Vector File.eps">
  <defs id="defs6"/>
  <sodipodi:namedview id="namedview4" pagecolor="#ffffff" bordercolor="#000000" borderopacity="0.25" inkscape:showpageshadow="2" inkscape:pageopacity="0.0" inkscape:pagecheckerboard="0" inkscape:deskcolor="#d1d1d1"/>
  <g id="g8" inkscape:groupmode="layer" inkscape:label="ink_ext_XXXXXX" transform="matrix(1.3333333,0,0,-1.3333333,0,396.09333)">
    <g id="g10" transform="scale(0.1)">
      <g transform="scale(0.55) translate(3000,1340)">
      <path d="M 0,1995.96 V 665.449 C 0,297.93 297.934,0 665.453,0 H 969.297 V 1995.96 H 0" style="fill:#f9c815;fill-opacity:1;fill-rule:nonzero;stroke:none" id="path12"/>
      <path  d="M 969.297,1995.96 V 0 H 1952.68 V 1995.96 H 969.297" style="fill:#6640a2;fill-opacity:1;fill-rule:nonzero;stroke:none" id="path14"/>
      <path d="m 969.297,2970.73 v -974.77 h 983.383 v 974.77 H 969.297" style="fill:#f07124;fill-opacity:1;fill-rule:nonzero;stroke:none" id="path16"/>
      <path d="M 1952.68,2970.73 V 0 h 321.55 c 375.03,0 679.05,304.02 679.05,679.039 V 2291.68 c 0,375.03 -304.02,679.05 -679.05,679.05 h -321.55" style="fill:#ed0e78;fill-opacity:1;fill-rule:nonzero;stroke:none" id="path18"/>
      </g>

      <path d="m 3894.97,1851.77 v -736.95 h 208.8 c 54.97,0 105.28,8.71 150.91,26.18 45.61,17.46 84.49,42.49 116.68,75.1 32.16,32.59 57.3,71 75.45,115.25 18.12,44.26 27.2,93.74 27.2,148.46 v 3.48 c 0,53.55 -9.08,103.03 -27.2,148.44 -18.15,45.4 -43.29,84.39 -75.45,116.99 -32.19,32.59 -71.07,57.93 -116.68,75.97 -45.63,18.04 -95.94,27.08 -150.91,27.08 z m -270.23,245.66 h 479.03 c 95.91,0 183.94,-15.52 264.07,-46.5 80.12,-31 149.16,-74 207.06,-128.97 57.91,-55 102.65,-119.62 134.24,-193.89 31.58,-74.3 47.38,-154.72 47.38,-241.26 v -3.52 c 0,-86.57 -15.8,-167.29 -47.38,-242.14 -31.59,-74.86 -76.33,-139.79 -134.24,-194.77 -57.9,-54.989 -126.94,-98.271 -207.06,-129.841 -80.13,-31.59 -168.16,-47.379 -264.07,-47.379 h -479.03 v 1228.27" style="fill:#21004f;fill-opacity:1;fill-rule:nonzero;stroke:none" id="path20"/>
      <path d="m 5316.25,1035.86 c 63.16,0 113.76,15.19 151.77,45.62 38.01,30.41 57.04,70.19 57.04,119.32 v 47.36 c -23.42,10.53 -49.44,19.01 -78.08,25.45 -28.7,6.43 -59.39,9.66 -92.12,9.66 -57.34,0 -102.39,-11.14 -135.12,-33.34 -32.76,-22.23 -49.13,-54.4 -49.13,-96.51 v -3.52 c 0,-36.26 13.44,-64.33 40.35,-84.22 26.9,-19.89 62,-29.82 105.29,-29.82 z m -80.72,-184.239 c -44.47,0 -86.28,6.141 -125.46,18.418 -39.2,12.27 -73.41,30.711 -102.65,55.27 -29.25,24.57 -52.36,54.679 -69.31,90.371 -16.97,35.66 -25.43,76.9 -25.43,123.71 v 3.5 c 0,51.47 9.33,95.91 28.07,133.36 18.69,37.43 44.74,68.43 78.08,93 33.33,24.56 73.1,42.98 119.32,55.27 46.19,12.28 97.38,18.42 153.53,18.42 47.95,0 89.77,-3.52 125.46,-10.53 35.67,-7.01 70.46,-16.4 104.4,-28.07 v 15.79 c 0,56.15 -16.97,98.83 -50.88,128.09 -33.94,29.22 -84.23,43.86 -150.91,43.86 -51.48,0 -96.8,-4.38 -135.99,-13.16 -39.2,-8.77 -80.43,-21.35 -123.69,-37.73 l -66.69,203.55 c 51.47,22.21 105.29,40.36 161.44,54.4 56.14,14.03 123.98,21.05 203.53,21.05 73.71,0 136.57,-9.07 188.64,-27.19 52.04,-18.15 95.03,-44.17 128.97,-78.09 35.09,-35.09 60.81,-78.08 77.21,-128.97 16.36,-50.89 24.56,-107.91 24.56,-171.07 V 869.16 h -257.94 v 101.781 c -32.76,-36.281 -71.94,-65.23 -117.57,-86.859 -45.62,-21.633 -101.19,-32.461 -166.69,-32.461" style="fill:#21004f;fill-opacity:1;fill-rule:nonzero;stroke:none" id="path22"/>
      <path d="m 6316.43,853.371 c -40.95,0 -78.07,4.391 -111.41,13.168 -33.34,8.762 -62.02,24.25 -85.98,46.492 -23.99,22.199 -42.73,51.16 -56.15,86.86 -13.47,35.669 -20.18,80.979 -20.18,135.979 v 445.68 H 5930.4 v 228.12 h 112.31 v 240.38 h 266.71 v -240.38 h 221.08 v -228.12 h -221.08 v -401.81 c 0,-60.84 28.65,-91.25 85.98,-91.25 46.76,0 90.63,11.1 131.6,33.34 V 907.762 c -28.07,-16.403 -59.08,-29.551 -92.99,-39.473 -33.95,-9.93 -73.14,-14.918 -117.58,-14.918" style="fill:#21004f;fill-opacity:1;fill-rule:nonzero;stroke:none" id="path24"/>
      <path d="m 7074.46,1035.86 c 63.16,0 113.75,15.19 151.77,45.62 38.01,30.41 57.03,70.19 57.03,119.32 v 47.36 c -23.41,10.53 -49.43,19.01 -78.08,25.45 -28.69,6.43 -59.39,9.66 -92.12,9.66 -57.34,0 -102.38,-11.14 -135.11,-33.34 -32.77,-22.23 -49.13,-54.4 -49.13,-96.51 v -3.52 c 0,-36.26 13.44,-64.33 40.35,-84.22 26.89,-19.89 62,-29.82 105.29,-29.82 z m -80.72,-184.239 c -44.47,0 -86.29,6.141 -125.46,18.418 -39.21,12.27 -73.42,30.711 -102.65,55.27 -29.25,24.57 -52.36,54.679 -69.32,90.371 -16.97,35.66 -25.43,76.9 -25.43,123.71 v 3.5 c 0,51.47 9.34,95.91 28.07,133.36 18.69,37.43 44.75,68.43 78.08,93 33.34,24.56 73.1,42.98 119.32,55.27 46.19,12.28 97.39,18.42 153.54,18.42 47.95,0 89.76,-3.52 125.46,-10.53 35.67,-7.01 70.46,-16.4 104.4,-28.07 v 15.79 c 0,56.15 -16.97,98.83 -50.88,128.09 -33.95,29.22 -84.24,43.86 -150.91,43.86 -51.49,0 -96.8,-4.38 -135.99,-13.16 -39.21,-8.77 -80.43,-21.35 -123.7,-37.73 l -66.69,203.55 c 51.47,22.21 105.3,40.36 161.44,54.4 56.15,14.03 123.98,21.05 203.54,21.05 73.7,0 136.56,-9.07 188.64,-27.19 52.04,-18.15 95.03,-44.17 128.97,-78.09 35.09,-35.09 60.81,-78.08 77.2,-128.97 16.37,-50.89 24.56,-107.91 24.56,-171.07 V 869.16 H 7278 v 101.781 c -32.77,-36.281 -71.94,-65.23 -117.57,-86.859 -45.62,-21.633 -101.19,-32.461 -166.69,-32.461" style="fill:#21004f;fill-opacity:1;fill-rule:nonzero;stroke:none" id="path26"/>
      <path d="m 8369.41,848.102 c -90.1,0 -173.72,16.398 -250.92,49.128 -77.22,32.739 -143.89,77.489 -200.04,134.24 -56.14,56.72 -100.01,123.7 -131.6,200.92 -31.59,77.2 -47.38,159.67 -47.38,247.39 v 3.51 c 0,87.73 15.79,169.91 47.38,246.54 31.59,76.6 75.46,143.88 131.6,201.79 56.15,57.9 123.41,103.52 201.79,136.86 78.35,33.34 164.94,50.01 259.68,50.01 57.31,0 109.69,-4.69 157.05,-14.04 47.38,-9.38 90.37,-22.24 128.98,-38.6 38.6,-16.4 74.27,-36.27 107.04,-59.66 32.73,-23.41 63.16,-49.13 91.23,-77.2 L 8692.27,1730.7 c -47.99,43.27 -96.82,77.21 -146.52,101.77 -49.73,24.57 -105.58,36.86 -167.58,36.86 -51.48,0 -99.13,-9.96 -143,-29.83 -43.87,-19.91 -81.59,-47.39 -113.18,-82.47 -31.59,-35.1 -56.15,-75.76 -73.69,-121.96 -17.56,-46.22 -26.32,-95.63 -26.32,-148.26 v -3.52 c 0,-52.63 8.76,-102.36 26.32,-149.14 17.54,-46.79 41.8,-87.73 72.82,-122.82 30.98,-35.1 68.44,-62.91 112.3,-83.36 43.87,-20.47 92.12,-30.7 144.75,-30.7 70.19,0 129.55,12.85 178.11,38.6 48.53,25.72 96.78,60.81 144.75,105.28 L 8873,1067.43 c -31.59,-33.94 -64.35,-64.33 -98.26,-91.231 -33.94,-26.929 -71.07,-50.019 -111.43,-69.308 -40.36,-19.309 -84.52,-33.942 -132.48,-43.871 -47.97,-9.918 -101.76,-14.918 -161.42,-14.918" style="fill:#21004f;fill-opacity:1;fill-rule:nonzero;stroke:none" id="path28"/>
      <path d="m 9678.37,1413.1 c -8.19,59.66 -29.25,107.92 -63.15,144.77 -33.95,36.84 -78.97,55.27 -135.12,55.27 -56.16,0 -101.51,-18.15 -135.99,-54.39 -34.51,-36.28 -57.03,-84.84 -67.56,-145.65 z M 9506.42,848.102 c -70.19,0 -135.41,11.707 -195.65,35.097 -60.26,23.391 -112.3,56.723 -156.17,100.02 -43.87,43.261 -78.08,94.441 -102.65,153.531 -24.56,59.06 -36.84,124.85 -36.84,197.4 v 3.51 c 0,66.68 11.41,129.84 34.21,189.5 22.81,59.66 54.67,111.7 95.63,156.17 40.94,44.44 89.77,79.53 146.52,105.28 56.73,25.72 119.59,38.6 188.63,38.6 78.35,0 146.22,-14.04 203.54,-42.11 57.31,-28.07 104.97,-65.8 143,-113.18 38,-47.37 66.09,-101.77 84.24,-163.18 18.11,-61.41 27.19,-125.46 27.19,-192.14 0,-10.52 -0.3,-21.66 -0.87,-33.33 -0.6,-11.71 -1.48,-23.99 -2.64,-36.85 h -654.5 c 12.87,-60.84 39.48,-106.76 79.85,-137.74 40.35,-31.02 90.35,-46.51 150.01,-46.51 44.44,0 84.24,7.6 119.32,22.82 35.11,15.19 71.34,39.75 108.8,73.69 l 152.65,-135.11 c -44.47,-55 -98.26,-97.98 -161.43,-128.961 -63.16,-30.98 -137.47,-46.507 -222.84,-46.507" style="fill:#21004f;fill-opacity:1;fill-rule:nonzero;stroke:none" id="path30"/>
      <path d="m 10136.3,1809.67 h 266.7 v -133.36 c 15.2,19.87 31.9,38.88 50.1,57.03 18.1,18.12 38.3,34.21 60.5,48.25 22.2,14.04 46.8,25.14 73.7,33.34 26.9,8.17 57.3,12.28 91.2,12.28 101.8,0 180.5,-31.01 236,-93 55.6,-62.01 83.4,-147.39 83.4,-256.18 V 869.16 h -266.7 v 524.65 c 0,63.17 -14.1,110.81 -42.1,143 -28.1,32.16 -67.9,48.26 -119.4,48.26 -51.5,0 -92.1,-16.1 -121.9,-48.26 -29.8,-32.19 -44.8,-79.83 -44.8,-143 V 869.16 h -266.7 v 940.51" style="fill:#21004f;fill-opacity:1;fill-rule:nonzero;stroke:none" id="path32"/>
      <path d="m 11547.1,853.371 c -41,0 -78.1,4.391 -111.4,13.168 -33.4,8.762 -62.1,24.25 -86,46.492 -24,22.199 -42.7,51.16 -56.2,86.86 -13.4,35.669 -20.2,80.979 -20.2,135.979 v 445.68 H 11161 v 228.12 h 112.3 v 240.38 h 266.8 v -240.38 h 221 v -228.12 h -221 v -401.81 c 0,-60.84 28.6,-91.25 85.9,-91.25 46.8,0 90.7,11.1 131.6,33.34 V 907.762 c -28,-16.403 -59,-29.551 -93,-39.473 -33.9,-9.93 -73.1,-14.918 -117.5,-14.918" style="fill:#21004f;fill-opacity:1;fill-rule:nonzero;stroke:none" id="path34"/>
      <path d="m 11957.7,1809.67 h 266.7 v -189.51 c 26.9,64.32 63.7,115.81 110.5,154.41 46.8,38.6 110,56.15 189.5,52.64 v -278.99 h -14 c -88.9,0 -158.8,-26.92 -209.7,-80.72 -50.9,-53.81 -76.3,-137.46 -76.3,-250.91 V 869.16 h -266.7 v 940.51" style="fill:#21004f;fill-opacity:1;fill-rule:nonzero;stroke:none" id="path36"/>
      <path d="m 12994.7,1035.86 c 63.2,0 113.8,15.19 151.8,45.62 38,30.41 57,70.19 57,119.32 v 47.36 c -23.4,10.53 -49.4,19.01 -78.1,25.45 -28.7,6.43 -59.4,9.66 -92.1,9.66 -57.3,0 -102.4,-11.14 -135.1,-33.34 -32.8,-22.23 -49.1,-54.4 -49.1,-96.51 v -3.52 c 0,-36.26 13.4,-64.33 40.3,-84.22 26.9,-19.89 62,-29.82 105.3,-29.82 z M 12914,851.621 c -44.5,0 -86.3,6.141 -125.5,18.418 -39.2,12.27 -73.4,30.711 -102.6,55.27 -29.3,24.57 -52.4,54.679 -69.3,90.371 -17,35.66 -25.5,76.9 -25.5,123.71 v 3.5 c 0,51.47 9.4,95.91 28.1,133.36 18.7,37.43 44.7,68.43 78.1,93 33.3,24.56 73.1,42.98 119.3,55.27 46.2,12.28 97.4,18.42 153.5,18.42 48,0 89.8,-3.52 125.5,-10.53 35.7,-7.01 70.4,-16.4 104.4,-28.07 v 15.79 c 0,56.15 -17,98.83 -50.9,128.09 -33.9,29.22 -84.2,43.86 -150.9,43.86 -51.5,0 -96.8,-4.38 -136,-13.16 -39.2,-8.77 -80.4,-21.35 -123.7,-37.73 l -66.7,203.55 c 51.5,22.21 105.3,40.36 161.5,54.4 56.1,14.03 123.9,21.05 203.5,21.05 73.7,0 136.6,-9.07 188.6,-27.19 52.1,-18.15 95.1,-44.17 129,-78.09 35.1,-35.09 60.8,-78.08 77.2,-128.97 16.4,-50.89 24.6,-107.91 24.6,-171.07 V 869.16 h -258 v 101.781 c -32.7,-36.281 -71.9,-65.23 -117.5,-86.859 -45.6,-21.633 -101.2,-32.461 -166.7,-32.461" style="fill:#21004f;fill-opacity:1;fill-rule:nonzero;stroke:none" id="path38"/>
      <path d="M 13698.3,2150.07 H 13965 V 869.16 h -266.7 v 1280.91" style="fill:#21004f;fill-opacity:1;fill-rule:nonzero;stroke:none" id="path40"/>
    </g>
  </g>
</svg>